<?xml version="1.0" encoding="UTF-8"?>
<!-- 应用图标前景：纯白线条，透明底 -->
<svg viewBox="0 0 1024 1024" xmlns="http://www.w3.org/2000/svg">
  <path fill="#FFFFFF" fill-rule="evenodd" d="M 731.0 744.0 L 729.0 740.0 L 723.0 735.0 L 720.0 734.0 L 709.0 735.0 L 705.0 737.0 L 693.0 749.0 L 671.0 767.0 L 651.0 780.0 L 617.0 797.0 L 575.0 811.0 L 550.0 816.0 L 540.0 816.0 L 539.0 817.0 L 518.0 818.0 L 517.0 819.0 L 492.0 818.0 L 491.0 817.0 L 480.0 817.0 L 479.0 816.0 L 464.0 815.0 L 431.0 807.0 L 396.0 794.0 L 360.0 775.0 L 349.0 767.0 L 349.0 765.0 L 357.0 759.0 L 359.0 753.0 L 358.0 745.0 L 353.0 740.0 L 348.0 740.0 L 347.0 739.0 L 340.0 739.0 L 339.0 740.0 L 291.0 739.0 L 286.0 740.0 L 281.0 746.0 L 281.0 756.0 L 283.0 760.0 L 285.0 770.0 L 287.0 773.0 L 287.0 776.0 L 290.0 782.0 L 296.0 804.0 L 302.0 812.0 L 315.0 812.0 L 319.0 808.0 L 322.0 802.0 L 324.0 794.0 L 328.0 793.0 L 342.0 803.0 L 367.0 817.0 L 369.0 817.0 L 396.0 830.0 L 423.0 839.0 L 434.0 841.0 L 438.0 843.0 L 453.0 845.0 L 464.0 848.0 L 471.0 848.0 L 472.0 849.0 L 499.0 850.0 L 500.0 851.0 L 523.0 851.0 L 524.0 850.0 L 537.0 850.0 L 538.0 849.0 L 563.0 847.0 L 572.0 844.0 L 577.0 844.0 L 597.0 839.0 L 603.0 836.0 L 609.0 835.0 L 628.0 828.0 L 661.0 812.0 L 688.0 795.0 L 719.0 770.0 L 728.0 761.0 L 731.0 756.0 Z"/>
  <path fill="#FFFFFF" fill-rule="evenodd" d="M 238.0 598.0 L 238.0 604.0 L 242.0 608.0 L 293.0 608.0 L 297.0 604.0 L 297.0 597.0 L 294.0 593.0 L 242.0 593.0 Z"/>
  <path fill="#FFFFFF" fill-rule="evenodd" d="M 315.0 351.0 L 310.0 351.0 L 309.0 350.0 L 210.0 351.0 L 201.0 354.0 L 194.0 359.0 L 189.0 365.0 L 185.0 373.0 L 184.0 378.0 L 184.0 609.0 L 185.0 614.0 L 190.0 624.0 L 198.0 632.0 L 204.0 635.0 L 212.0 637.0 L 314.0 637.0 L 319.0 635.0 L 323.0 631.0 L 325.0 624.0 L 325.0 616.0 L 323.0 614.0 L 311.0 615.0 L 310.0 616.0 L 222.0 616.0 L 212.0 613.0 L 207.0 608.0 L 205.0 602.0 L 205.0 385.0 L 206.0 382.0 L 213.0 374.0 L 218.0 372.0 L 316.0 372.0 L 317.0 373.0 L 323.0 373.0 L 324.0 372.0 L 323.0 357.0 Z"/>
  <path fill="#FFFFFF" fill-rule="evenodd" d="M 345.0 312.0 L 339.0 324.0 L 336.0 335.0 L 336.0 344.0 L 335.0 345.0 L 335.0 681.0 L 336.0 682.0 L 336.0 693.0 L 338.0 699.0 L 343.0 708.0 L 352.0 717.0 L 367.0 723.0 L 384.0 723.0 L 391.0 721.0 L 404.0 714.0 L 497.0 653.0 L 507.0 649.0 L 516.0 649.0 L 524.0 652.0 L 625.0 717.0 L 640.0 722.0 L 655.0 722.0 L 664.0 719.0 L 674.0 713.0 L 683.0 701.0 L 687.0 684.0 L 687.0 654.0 L 686.0 649.0 L 687.0 648.0 L 687.0 639.0 L 688.0 638.0 L 853.0 638.0 L 864.0 634.0 L 871.0 627.0 L 874.0 620.0 L 874.0 607.0 L 873.0 605.0 L 863.0 603.0 L 854.0 603.0 L 853.0 604.0 L 835.0 603.0 L 832.0 604.0 L 830.0 602.0 L 830.0 376.0 L 826.0 366.0 L 819.0 359.0 L 813.0 356.0 L 802.0 355.0 L 801.0 354.0 L 688.0 354.0 L 687.0 353.0 L 686.0 334.0 L 683.0 322.0 L 678.0 312.0 L 672.0 304.0 L 664.0 296.0 L 648.0 287.0 L 629.0 283.0 L 394.0 283.0 L 378.0 286.0 L 365.0 292.0 L 359.0 296.0 L 349.0 306.0 Z M 510.0 380.0 L 517.0 382.0 L 521.0 386.0 L 529.0 403.0 L 529.0 405.0 L 532.0 410.0 L 532.0 412.0 L 534.0 415.0 L 536.0 422.0 L 543.0 435.0 L 548.0 438.0 L 564.0 439.0 L 565.0 440.0 L 573.0 440.0 L 574.0 441.0 L 581.0 441.0 L 582.0 442.0 L 591.0 442.0 L 592.0 443.0 L 601.0 444.0 L 605.0 447.0 L 608.0 452.0 L 608.0 457.0 L 607.0 459.0 L 568.0 496.0 L 568.0 498.0 L 567.0 499.0 L 567.0 512.0 L 568.0 513.0 L 568.0 518.0 L 569.0 519.0 L 569.0 523.0 L 570.0 524.0 L 570.0 528.0 L 571.0 529.0 L 573.0 546.0 L 575.0 550.0 L 575.0 555.0 L 568.0 563.0 L 566.0 563.0 L 565.0 564.0 L 560.0 563.0 L 538.0 552.0 L 536.0 550.0 L 529.0 547.0 L 527.0 545.0 L 525.0 545.0 L 515.0 540.0 L 508.0 540.0 L 507.0 541.0 L 505.0 541.0 L 491.0 548.0 L 489.0 550.0 L 487.0 550.0 L 485.0 552.0 L 470.0 559.0 L 464.0 563.0 L 458.0 564.0 L 454.0 562.0 L 449.0 556.0 L 449.0 548.0 L 450.0 547.0 L 451.0 537.0 L 452.0 536.0 L 452.0 531.0 L 453.0 530.0 L 453.0 525.0 L 455.0 520.0 L 456.0 509.0 L 457.0 508.0 L 457.0 501.0 L 456.0 500.0 L 456.0 498.0 L 452.0 492.0 L 446.0 488.0 L 445.0 486.0 L 444.0 486.0 L 433.0 475.0 L 432.0 475.0 L 418.0 462.0 L 415.0 456.0 L 415.0 452.0 L 416.0 450.0 L 421.0 445.0 L 426.0 443.0 L 434.0 443.0 L 435.0 442.0 L 443.0 442.0 L 444.0 441.0 L 451.0 441.0 L 452.0 440.0 L 469.0 439.0 L 470.0 438.0 L 476.0 438.0 L 479.0 436.0 L 483.0 431.0 L 484.0 426.0 L 489.0 417.0 L 489.0 415.0 L 493.0 408.0 L 493.0 406.0 L 496.0 401.0 L 496.0 399.0 L 502.0 386.0 L 506.0 382.0 Z M 688.0 378.0 L 798.0 378.0 L 799.0 379.0 L 801.0 379.0 L 805.0 383.0 L 805.0 385.0 L 806.0 386.0 L 806.0 576.0 L 802.0 581.0 L 798.0 581.0 L 797.0 582.0 L 794.0 582.0 L 793.0 581.0 L 697.0 581.0 L 696.0 582.0 L 690.0 582.0 L 687.0 580.0 L 687.0 379.0 Z"/>
  <path fill="#FFFFFF" fill-rule="evenodd" d="M 285.0 257.0 L 285.0 266.0 L 287.0 271.0 L 291.0 275.0 L 295.0 277.0 L 306.0 277.0 L 310.0 275.0 L 335.0 253.0 L 355.0 239.0 L 377.0 226.0 L 400.0 215.0 L 425.0 206.0 L 428.0 206.0 L 431.0 204.0 L 442.0 202.0 L 446.0 200.0 L 466.0 196.0 L 480.0 195.0 L 481.0 194.0 L 511.0 192.0 L 512.0 193.0 L 529.0 193.0 L 530.0 194.0 L 548.0 195.0 L 574.0 200.0 L 604.0 209.0 L 640.0 225.0 L 665.0 241.0 L 665.0 244.0 L 659.0 247.0 L 653.0 254.0 L 653.0 263.0 L 656.0 269.0 L 661.0 271.0 L 724.0 271.0 L 729.0 269.0 L 732.0 266.0 L 732.0 252.0 L 716.0 203.0 L 708.0 197.0 L 701.0 197.0 L 697.0 199.0 L 694.0 202.0 L 691.0 208.0 L 690.0 215.0 L 687.0 216.0 L 675.0 207.0 L 656.0 196.0 L 631.0 184.0 L 607.0 175.0 L 577.0 167.0 L 567.0 166.0 L 555.0 163.0 L 536.0 162.0 L 535.0 161.0 L 514.0 161.0 L 513.0 160.0 L 472.0 162.0 L 471.0 163.0 L 460.0 164.0 L 455.0 166.0 L 449.0 166.0 L 414.0 175.0 L 387.0 185.0 L 352.0 202.0 L 330.0 216.0 L 296.0 243.0 L 287.0 252.0 Z"/>
</svg>
