<?xml version="1.0" standalone="no"?>
<!DOCTYPE svg PUBLIC "-//W3C//DTD SVG 1.1//EN" "http://www.w3.org/Graphics/SVG/1.1/DTD/svg11.dtd">
<svg class="icon" viewBox="0 0 1024 1024" version="1.1" xmlns="http://www.w3.org/2000/svg" xmlns:xlink="http://www.w3.org/1999/xlink" width="256" height="256">
  <path d="M870.4 853.7088a51.2 51.2 0 0 1-65.28 49.2544L512 819.2l-293.12 83.7632A51.2 51.2 0 0 1 153.6 853.7088V204.8a102.4 102.4 0 0 1 102.4-102.4h512a102.4 102.4 0 0 1 102.4 102.4v648.9088z m-76.8-33.9456V204.8a25.6 25.6 0 0 0-20.992-25.1904L768 179.2H256a25.6 25.6 0 0 0-25.6 25.6v614.9632l260.5056-74.3936 21.0944-6.0416 21.0944 6.0416L793.6 819.712z" fill="#ffffff"/>
  <path d="M477.5424 290.2016a38.4 38.4 0 0 1 68.9152 0l36.1472 73.3696 80.9984 11.776a38.4 38.4 0 0 1 24.9344 61.44l-3.6352 4.0448-58.624 57.088 13.824 80.64a38.4 38.4 0 0 1-50.944 42.5984l-4.7616-2.0992L512 580.9664l-72.3456 38.0928a38.4 38.4 0 0 1-56.32-35.328l0.5632-5.12 13.824-80.6912L339.0976 440.832a38.4 38.4 0 0 1 15.9232-64.3584l5.376-1.1264L441.344 363.52l36.1984-73.3696zM512 393.9328l-10.752 21.7088a38.4 38.4 0 0 1-28.8768 20.992l-23.9616 3.4816 17.3568 16.896a38.4 38.4 0 0 1 11.5712 28.672l-0.512 5.3248-4.1472 23.8592 21.4528-11.264a38.4 38.4 0 0 1 30.8224-2.1504l4.9152 2.1504 21.4016 11.264-4.096-23.8592a38.4 38.4 0 0 1 7.4752-29.952l3.584-4.0448 17.3056-16.896-23.9104-3.4304a38.4 38.4 0 0 1-26.2144-16.384l-2.7136-4.608L512 393.8816z" fill="#ffffff"/>
</svg>
